PathFileType	4	(X/Y/Z)	66_1_7_p0_0-175.trc
DataRate	CameraRate	NumFrames	NumMarkers	Units	OrigDataRate	OrigDataStartFrame	OrigNumFrames
48.0	48.0	5	27	m	48.0	132	176
Frame#	Time	RHip			RKnee			RAnkle			RBigToe			RSmallToe			RHeel			LHip			LKnee			LAnkle			LBigToe			LSmallToe			LHeel			Neck			Head			Nose			RShoulder			RElbow			RWrist			RThumb			RIndex			RPinky			LShoulder			LElbow			LWrist			LThumb			LIndex			LPinky			
		X1	Y1	Z1	X2	Y2	Z2	X3	Y3	Z3	X4	Y4	Z4	X5	Y5	Z5	X6	Y6	Z6	X7	Y7	Z7	X8	Y8	Z8	X9	Y9	Z9	X10	Y10	Z10	X11	Y11	Z11	X12	Y12	Z12	X13	Y13	Z13	X14	Y14	Z14	X15	Y15	Z15	X16	Y16	Z16	X17	Y17	Z17	X18	Y18	Z18	X19	Y19	Z19	X20	Y20	Z20	X21	Y21	Z21	X22	Y22	Z22	X23	Y23	Z23	X24	Y24	Z24	X25	Y25	Z25	X26	Y26	Z26	X27	Y27	Z27	
132	2.75	0.5527278605415629	0.9171520934786718	0.8074737253344235	0.5303831914700885	0.9941216954333794	1.2263174704164477	0.5141160324723535	1.1046790779637312	1.610643109515765	0.4927808766768536	0.8969395192243379	1.6461670273741527	0.5647953823686384	0.9396309337490985	1.6489067786712925	0.4949712017207056	1.2146266190592774	1.6718492420730786	0.3645186333204187	0.8782337398437219	0.7828963611134986	0.3325449190360373	1.0181751733456763	1.2185566315404615	0.3239033456496909	1.1570255788706278	1.6085611821536447	0.328680555715512	0.9161700268920081	1.6311423214370688	0.2828973493019551	0.9922570457009386	1.6397341206301208	0.35510499923756733	1.214855752922661	1.6629673499064348	0.4915497643600683	0.7893511215981577	0.2590152095710552	0.4914601727939817	0.6867189670104326	0.028548687072502504	0.48312180709376024	0.6810784747328411	0.16214534505605704	0.6403759498912488	0.8171205585154664	0.3580690762980474	0.67647419537146	0.8414391326367342	0.6009504002179468	0.6086160145876837	0.6447218396888337	0.7617008383538304	0.5187536879965939	0.5611983181207343	0.8371499151532337	0.5403924284066345	0.564917111128413	0.8539560403327178	0.5835156571138594	0.6110492444370837	0.8834852520816209	0.33379650038374303	0.8557167792634565	0.32828753310030356	0.2521472405171824	0.8368715337900657	0.5181128314831758	0.15090452611629052	0.6908300935525361	0.5934060813101432	0.15157314403709973	0.5454293054996537	0.592076820674993	0.11082764054717219	0.49410071355251367	0.580533156471988	0.10042092044449416	0.5779012714711762	0.6219889089448394
133	2.7708333333333335	0.5564629370315194	0.8999047344512461	0.8092848451054204	0.5305802033121778	0.993468575548776	1.2306730097557506	0.5142309358859696	1.1047362565535657	1.6106941562877548	0.48965611636635	0.8852166082805797	1.6415036685879234	0.5595742711896602	0.9249576338447166	1.635003198610662	0.4970639596344981	1.2196508340701198	1.6781190880993213	0.36996183212629186	0.8829885005399462	0.7909595271021147	0.3319605788393404	1.0159761063519868	1.2138181347313715	0.32292511501127796	1.1533872171486597	1.6024773292636196	0.32779806794210264	0.9128729529998328	1.6257743296761378	0.28228165353893003	0.9893143547375618	1.6340911768817636	0.35063779415595187	1.2131853908055312	1.6622288012986066	0.4945252980546245	0.7744793115602919	0.25980110100970916	0.49520649670916245	0.6977262555202403	0.0269319603129577	0.48748909241872834	0.6840941830326652	0.16526403037589443	0.644596593577608	0.8285779437597195	0.35410370543076203	0.6742488830129378	0.860575376065181	0.6062063761148295	0.6331252207249088	0.6832715639692007	0.7736394910456362	0.5520731184690402	0.6049982199711662	0.8651528376735772	0.5646346664928462	0.616089481134145	0.8806666279659011	0.589316282481183	0.6291567791358014	0.8994384199734472	0.3378746098332961	0.8409842782592942	0.3287229501414054	0.2593473351124991	0.8282930614608243	0.515795040553208	0.14332951311609196	0.6945996300837701	0.612920595749369	0.10769869539061375	0.6201333999245315	0.6358177013166176	0.0808243067257302	0.5404219233555236	0.6303520470478116	0.08352982058630952	0.5701017005532979	0.6551268202259848
134	2.7916666666666665	0.5611013380108913	0.9047479915117894	0.8136505958072813	0.540526823764432	1.0135816354869744	1.2353951007493882	0.5144287061306255	1.1053650385112195	1.610907776802763	0.49306180701961966	0.8960055935824922	1.6459175300262914	0.5605880250292836	0.9522334040301736	1.6499194288373682	0.4956621533363607	1.2142295153019111	1.6720667734753623	0.3664280589674888	0.8995712340462195	0.7971932005043649	0.3356952610763592	1.0337234218171294	1.2223682395946418	0.32748776878197333	1.1567749098448254	1.6038871673253923	0.33215522206907655	0.9308615158980105	1.6367940454758938	0.2825216089268548	0.990466660353969	1.6346728728052178	0.3544851096281967	1.2209382784025258	1.665485109291459	0.4900508986584731	0.7604002743409839	0.25710174142194264	0.4951611983402207	0.6974755875175986	0.026939588391108975	0.4873768584093816	0.6818362245241373	0.1621163352497437	0.6446569824040116	0.8284802805055532	0.35411484763153656	0.6762689201283263	0.8903971918138602	0.6079213454522557	0.6382585160105732	0.6832305856734587	0.7738200751822907	0.5655941298985389	0.6155018551093523	0.8692050026525807	0.5784658320838123	0.6161489058058105	0.891985741862054	0.5997386802375505	0.6500858652707779	0.9126150182587447	0.3374101430584067	0.8389227237247003	0.32495830218064514	0.2595909064100369	0.8157297684450031	0.5229348383542316	0.13631665818312497	0.6837628128015402	0.6375124507154695	0.10347505799908349	0.6082317386819508	0.6655532148690705	0.07110305841981424	0.5666845093593956	0.6707819440252758	0.06599407679859096	0.5954214258983875	0.6970458832048523
135	2.8125	0.5577830215626108	0.8905840306387911	0.8081962847779367	0.5412200398464326	1.0117566423343	1.2302649037969686	0.514323415501974	1.1053217396720467	1.6110518758553305	0.49273036363131273	0.8965725712530401	1.6461760365650875	0.5615143232265664	0.9555889277877674	1.6554919268508028	0.4967077944763343	1.218483684865846	1.6779517791071288	0.3617922277166414	0.8993390687425077	0.8013885892204055	0.3357455676167731	1.0332106865820065	1.2221975625350179	0.32314768171469455	1.1548715781513692	1.6032456647225384	0.32866721830470347	0.9166081388395328	1.631188412231272	0.2831878135452009	0.9894576114753167	1.6307126830373084	0.3547376773778734	1.2182747904792426	1.6595033650276059	0.48998803985013006	0.7602439477182851	0.25712441711008904	0.4952116435039791	0.697597449392463	0.026961597806918505	0.4874392802830886	0.6815404310168727	0.1621848456461987	0.6445985163238843	0.8285616766478681	0.354072661650474	0.6762419836202933	0.8916864170209872	0.6081456526127225	0.6470699245809309	0.6964746653140312	0.7828626746748776	0.5754215751506733	0.6296612720734633	0.879028140996034	0.585381299798118	0.6229547108033284	0.9011285263704389	0.6299644981064124	0.6758009674189926	0.9179723264022481	0.33730263672385463	0.8389161819878325	0.3249408958248044	0.2546608708989488	0.8466715457557051	0.5244258139818794	0.1357797743155925	0.6899543167874556	0.6533868157604321	0.09402580412164309	0.6099805710151833	0.7041759312873941	0.07026736751454164	0.5835302770968526	0.699393073673065	0.06609224850580672	0.6484596441045825	0.71432571200365
136	2.8333333333333335	0.5623708489754478	0.9042009939983986	0.8097792401167506	0.5410519841071718	1.0114007570989902	1.230257803613864	0.5134558252628534	1.1070312596020737	1.615744871921193	0.49806386039683637	0.9107522543140393	1.6516177708557556	0.5642806188329529	0.93474986155539	1.6434409205159985	0.49545533087343885	1.2129092164020603	1.67180176739293	0.366470015855671	0.9002542602057813	0.8014763280699826	0.3356423341710957	1.0331272278913954	1.2221116902923375	0.32308361851331957	1.1541177012937522	1.603019670782215	0.32819484377461267	0.9116589497254716	1.6299731522595546	0.28199204164142944	0.9899083354444821	1.6344753984714202	0.35515373960590463	1.2138486379602897	1.6624579340150236	0.48684459531484786	0.7744661211454905	0.2563405812024359	0.4955632021008972	0.697386528137582	0.026950393555722808	0.49057089315210134	0.6681092091180704	0.1632266213645009	0.6447234448568594	0.8286496301513199	0.3578802141207349	0.676965610872665	0.8939378909536685	0.6123389825408622	0.6482762918675956	0.6991296060092428	0.7911296317019714	0.5757934776653174	0.6299233783322006	0.8902284472168117	0.5908849348193099	0.6355211650940655	0.9106729116207452	0.6535126099482239	0.7226371990319599	0.9297848676123959	0.3374861415261476	0.8386340872008985	0.3251021599691191	0.24478500593038874	0.8605512132543851	0.528268112448483	0.13973992970614718	0.7065393665147438	0.666914611470021	0.09658530975975602	0.6411477540335576	0.7250089655725762	0.06917221019445065	0.5834799457546777	0.713888732890048	0.05309793350549646	0.7001915652032845	0.7385897191882591
